<svg width="180" height="30" viewBox="0 0 180 30" fill="none" xmlns="http://www.w3.org/2000/svg">
<g clip-path="url(#clip0_1_636)">
<path d="M14.7572 4.95854L29.1885 0.78125L24.9777 15.0001L29.1885 29.1788L14.7572 25.0416L0.285049 29.1788L4.53676 15.0001L0.285049 0.78125L14.7572 4.95854Z" fill="white"/>
</g>
<path d="M40.1098 25.4722V2.91663H49.2272C50.6265 2.91663 51.8728 3.19589 52.966 3.7544C54.0811 4.29144 54.9447 5.06477 55.5569 6.0744C56.191 7.06255 56.508 8.25477 56.508 9.65107V10.07C56.508 11.4663 56.18 12.6692 55.5241 13.6788C54.89 14.6885 54.0264 15.4618 52.9332 15.9988C51.84 16.5359 50.6047 16.8044 49.2272 16.8044H43.6518V25.4722H40.1098ZM43.6518 13.6466H48.8665C50.1127 13.6466 51.1075 13.3244 51.8509 12.68C52.5943 12.0355 52.966 11.1548 52.966 10.0377V9.71552C52.966 8.577 52.5943 7.68552 51.8509 7.04107C51.1075 6.39663 50.1127 6.0744 48.8665 6.0744H43.6518V13.6466Z" fill="white"/>
<path d="M67.0969 25.9233C65.4789 25.9233 64.0359 25.6011 62.7677 24.9566C61.5215 24.2907 60.5376 23.3455 59.8161 22.1211C59.0945 20.8966 58.7338 19.4466 58.7338 17.7711V17.2877C58.7338 15.6122 59.0945 14.1729 59.8161 12.97C60.5376 11.7455 61.5215 10.8003 62.7677 10.1344C64.0359 9.46848 65.4789 9.13552 67.0969 9.13552C68.7148 9.13552 70.1578 9.46848 71.426 10.1344C72.6941 10.8003 73.6889 11.7455 74.4104 12.97C75.132 14.1729 75.4927 15.6122 75.4927 17.2877V17.7711C75.4927 19.4466 75.132 20.8966 74.4104 22.1211C73.6889 23.3455 72.6941 24.2907 71.426 24.9566C70.1578 25.6011 68.7148 25.9233 67.0969 25.9233ZM67.0969 22.9589C68.5836 22.9589 69.7862 22.497 70.7044 21.5733C71.6446 20.6281 72.1147 19.3285 72.1147 17.6744V17.3844C72.1147 15.7303 71.6555 14.4414 70.7372 13.5177C69.8189 12.5726 68.6055 12.1 67.0969 12.1C65.6319 12.1 64.4294 12.5726 63.4893 13.5177C62.571 14.4414 62.1118 15.7303 62.1118 17.3844V17.6744C62.1118 19.3285 62.571 20.6281 63.4893 21.5733C64.4294 22.497 65.6319 22.9589 67.0969 22.9589Z" fill="white"/>
<path d="M86.3232 25.9233C84.268 25.9233 82.5625 25.4722 81.207 24.57C79.8514 23.6677 79.0205 22.3037 78.7144 20.4777L81.8629 19.7366C82.0378 20.6174 82.333 21.3155 82.7484 21.8311C83.1638 22.3466 83.6776 22.7118 84.2898 22.9266C84.9239 23.1414 85.6017 23.2488 86.3232 23.2488C87.3945 23.2488 88.2144 23.0448 88.7829 22.6366C89.3732 22.2285 89.6684 21.7022 89.6684 21.0577C89.6684 20.4133 89.3951 19.9407 88.8485 19.64C88.3019 19.3392 87.4929 19.0922 86.4216 18.8989L85.3065 18.7055C84.2133 18.5122 83.2185 18.2329 82.322 17.8677C81.4256 17.5026 80.715 16.9977 80.1903 16.3533C79.6655 15.7088 79.4032 14.8818 79.4032 13.8722C79.4032 12.3685 79.9716 11.2085 81.1086 10.3922C82.2455 9.5544 83.7541 9.13552 85.6345 9.13552C87.4492 9.13552 88.936 9.54366 90.0948 10.36C91.2754 11.1548 92.0407 12.2396 92.3905 13.6144L89.2421 14.4844C89.0453 13.5177 88.6299 12.8411 87.9958 12.4544C87.3617 12.0463 86.5746 11.8422 85.6345 11.8422C84.7162 11.8422 83.9946 12.014 83.4699 12.3577C82.9452 12.68 82.6828 13.1418 82.6828 13.7433C82.6828 14.3877 82.9342 14.8603 83.4371 15.1611C83.9619 15.4618 84.6615 15.6874 85.5361 15.8377L86.6839 16.0311C87.8427 16.2244 88.9032 16.4929 89.8652 16.8366C90.8272 17.1803 91.5815 17.6744 92.1281 18.3188C92.6966 18.9633 92.9808 19.8226 92.9808 20.8966C92.9808 22.4863 92.3796 23.7214 91.177 24.6022C89.9745 25.4829 88.3566 25.9233 86.3232 25.9233Z" fill="white"/>
<path d="M96.9292 25.4722V9.58663H100.307V25.4722H96.9292ZM98.6346 7.42774C97.9787 7.42774 97.4212 7.22366 96.962 6.81552C96.5247 6.38589 96.3061 5.83811 96.3061 5.17218C96.3061 4.50626 96.5247 3.96922 96.962 3.56107C97.4212 3.13144 97.9787 2.91663 98.6346 2.91663C99.3124 2.91663 99.87 3.13144 100.307 3.56107C100.745 3.96922 100.963 4.50626 100.963 5.17218C100.963 5.83811 100.745 6.38589 100.307 6.81552C99.87 7.22366 99.3124 7.42774 98.6346 7.42774Z" fill="white"/>
<path d="M111.388 25.4722C110.404 25.4722 109.617 25.1822 109.026 24.6022C108.458 24.0222 108.174 23.2489 108.174 22.2822V12.39H103.713V9.58663H108.174V4.3344H111.552V9.58663H116.373V12.39H111.552V21.7022C111.552 22.3466 111.858 22.6689 112.47 22.6689H115.848V25.4722H111.388Z" fill="white"/>
<path d="M120.341 25.4722V9.58663H123.719V25.4722H120.341ZM122.047 7.42774C121.391 7.42774 120.833 7.22366 120.374 6.81552C119.937 6.38589 119.718 5.83811 119.718 5.17218C119.718 4.50626 119.937 3.96922 120.374 3.56107C120.833 3.13144 121.391 2.91663 122.047 2.91663C122.725 2.91663 123.282 3.13144 123.719 3.56107C124.157 3.96922 124.375 4.50626 124.375 5.17218C124.375 5.83811 124.157 6.38589 123.719 6.81552C123.282 7.22366 122.725 7.42774 122.047 7.42774Z" fill="white"/>
<path d="M132.471 25.4722L127.027 9.58663H130.602L134.898 23.0233H135.423L139.719 9.58663H143.294L137.85 25.4722H132.471Z" fill="white"/>
<path d="M152.771 25.7622C151.546 25.7622 150.453 25.4937 149.491 24.9566C148.529 24.4196 147.775 23.657 147.228 22.6689C146.681 21.6807 146.408 20.4992 146.408 19.1244V9.58663H149.786V18.8989C149.786 20.2737 150.136 21.294 150.836 21.96C151.535 22.6044 152.508 22.9266 153.754 22.9266C155.132 22.9266 156.236 22.4755 157.067 21.5733C157.92 20.6496 158.346 19.3285 158.346 17.61V9.58663H161.724V25.4722H158.412V23.0877H157.887C157.581 23.7322 157.034 24.3444 156.247 24.9244C155.46 25.4829 154.301 25.7622 152.771 25.7622Z" fill="white"/>
<path d="M173.342 25.9233C171.287 25.9233 169.582 25.4722 168.226 24.57C166.871 23.6677 166.04 22.3037 165.734 20.4777L168.882 19.7366C169.057 20.6174 169.352 21.3155 169.768 21.8311C170.183 22.3466 170.697 22.7118 171.309 22.9266C171.943 23.1414 172.621 23.2488 173.342 23.2488C174.414 23.2488 175.234 23.0448 175.802 22.6366C176.392 22.2285 176.688 21.7022 176.688 21.0577C176.688 20.4133 176.414 19.9407 175.868 19.64C175.321 19.3392 174.512 19.0922 173.441 18.8989L172.326 18.7055C171.232 18.5122 170.238 18.2329 169.341 17.8677C168.445 17.5026 167.734 16.9977 167.209 16.3533C166.685 15.7088 166.422 14.8818 166.422 13.8722C166.422 12.3685 166.991 11.2085 168.128 10.3922C169.265 9.5544 170.773 9.13552 172.654 9.13552C174.468 9.13552 175.955 9.54366 177.114 10.36C178.295 11.1548 179.06 12.2396 179.41 13.6144L176.261 14.4844C176.064 13.5177 175.649 12.8411 175.015 12.4544C174.381 12.0463 173.594 11.8422 172.654 11.8422C171.735 11.8422 171.014 12.014 170.489 12.3577C169.964 12.68 169.702 13.1418 169.702 13.7433C169.702 14.3877 169.953 14.8603 170.456 15.1611C170.981 15.4618 171.681 15.6874 172.555 15.8377L173.703 16.0311C174.862 16.2244 175.922 16.4929 176.884 16.8366C177.846 17.1803 178.601 17.6744 179.147 18.3188C179.716 18.9633 180 19.8226 180 20.8966C180 22.4863 179.399 23.7214 178.196 24.6022C176.994 25.4829 175.376 25.9233 173.342 25.9233Z" fill="white"/>
<defs>
<clipPath id="clip0_1_636">
<rect width="29.5167" height="29" fill="white" transform="translate(0 0.5)"/>
</clipPath>
</defs>
</svg>
